# xmcd
#
# Track frame offsets: 
#        150
#        20817
#        45300
#        64912
#        79717
#        101882
#        123520
#        141075
#        157380
#        175110
#        193635
#        206765
#
# Disc length: 2976 seconds
#
# Revision: 0
# Processed by: cddbd v1.5PL3 Copyright (c) Steve Scherf et al.
# Submitted via: ExactAudioCopy v0.95a5
#
DISCID=af0b9e0c
DTITLE=The Fabulous Thunderbirds - The Fabulous Thunderbirds: All Time
DTITLE=Favorites [CD3]
DYEAR=2002
DGENRE=Blues/Rock
TTITLE0=Powerful Stuff
TTITLE1=Feelin' Good
TTITLE2=Roller Coaster
TTITLE3=Sweet Thang
TTITLE4=Can't Stop Rockin'
TTITLE5=When I Get Home
TTITLE6=Paralyzed
TTITLE7=Stand Back
TTITLE8=Got Love If You Want It
TTITLE9=You Can't Judge A Book By It's Cover
TTITLE10=Stagger lee
TTITLE11=Twist It Off
EXTD=
EXTT0=
EXTT1=
EXTT2=
EXTT3=
EXTT4=
EXTT5=
EXTT6=
EXTT7=
EXTT8=
EXTT9=
EXTT10=
EXTT11=
PLAYORDER=
